<svg id="Layer_1" data-name="Layer 1" xmlns="http://www.w3.org/2000/svg" viewBox="0 0 866.69 981.07"><defs><style>.cls-1{fill:#fbf9e7;}.cls-2{fill:#532814;}.cls-3{fill:#b4835c;}.cls-4{fill:#74d698;}.cls-5{fill:#fd8167;}.cls-6{fill:#fefefe;}</style></defs><title>logg</title><path class="cls-1" d="M80,515.39c-.66-9.16-1-18.18-1.66-26.51-.33-4.54-.63-9.09-.84-13.64C73.37,385.34,99.6,300.6,148.8,225.76c24.2-36.82,53.95-70.1,88.68-97.22,7.59-5.93,15.4-11.56,23.22-17.18C309,76.6,365.59,52.2,423.53,39.1c92.46-20.89,202.14.64,286.08,42.79C778.93,116.7,839,170.31,880.05,236.25,945.29,341,961.52,474.83,923.81,592.36s-128.5,216.75-242,265.32c-38.48,16.47-82,29.35-106.27,63.46C559.44,943.81,558.81,986.57,532,994c-15,4.15-15.57,13.65-24,18,.2,2.18-22.34-34.24-20.48-33.19a15,15,0,0,1,7.79,14.73c-36.9-25-37.35-81.43-72.82-104.53-5.89-3.83-12.8-5.69-19.53-7.65a468.39,468.39,0,0,1-142.35-69.59C218.53,781.43,181,744.49,151.27,701.93a405.44,405.44,0,0,1-38.82-68.7c-10-22.64-13.57-47.82-23.11-70.13C83.33,549.06,81.23,532,80,515.39ZM766.89,767.83c2.31-.18,3.55-1.62,4.25-3.66l0,0c6.5-4.36,11.91-10,17.36-15.49a475.42,475.42,0,0,0,60.1-74.18c18.32-27.8,32.85-57.17,42.8-89.13a487.66,487.66,0,0,0,19.23-93.12c3.48-32.22.09-64.17-4.4-96-4.27-30.34-14.38-59-25.55-87.35-9.19-23.3-22.23-44.59-35.87-65.47a363.93,363.93,0,0,0-36.33-46.69,384.49,384.49,0,0,0-62-54.57c-21.52-15.19-43.74-29-67.89-39.7-15.08-6.69-30.81-11.52-46.25-17.16-7.76-2.83-15.7-5.16-23.56-7.72-17.25-7-35.16-11.56-53.42-15.21-32.06-6.4-63.85-4.87-95.61,1.64-21.08,4.32-41.12,12.14-61.51,18.79-3.62-.47-6.76,1.22-10,2.28-12.51,4-24.52,9.29-36.65,14.31a343.29,343.29,0,0,0-69.85,39.29c-23.85,17.23-46,36.61-65.58,58.82S178.82,243,164.68,268.86c-11.05,20.25-21.67,40.74-29.19,62.7a453.41,453.41,0,0,0-15.61,55.62A412.49,412.49,0,0,0,112,492.35a317.34,317.34,0,0,0,9,60.54c9.78,39.24,24.18,76.71,46.24,110.9,7.48,11.59,15.18,23,23.37,34.12,7.12,9.63,15.33,18.35,23.15,27.4,15.6,18.08,33.79,33.27,52.31,48.07a385.57,385.57,0,0,0,32.66,23.68c7.81,5,15.23,10.64,23.84,14.31l14.64,8.46c18.47,10.73,38,19.09,57.95,26.69,15,5.73,29,14.31,45.3,16.65,3,.42,4.75,2.82,6.3,5.28,7.69,12.26,15.46,24.46,23.59,36.43C480.44,919.71,492.72,933,501.11,949a65.46,65.46,0,0,0,8.59,12.21c4.06,4.7,4.57,4.35,8.61-.56,7.76-9.44,12.28-20.8,19-30.84q21.59-32.31,43.2-64.61c1.14-1.71,2.78-2.25,4.47-2.92,18.23-7.2,37.31-11.95,55.18-20.35,18.18-8.54,37.38-14.91,54.67-25.41a1.67,1.67,0,0,0,2.38-1.3l1.64-.65a1.61,1.61,0,0,0,2.32-1.41,2.85,2.85,0,0,0,.72-.41,4.19,4.19,0,0,0,4.3-2.6l9.66-5.5a1.74,1.74,0,0,0,2.41-1.39l10.57-6.56c1.22.15,2.12-.18,2.38-1.52a3.41,3.41,0,0,0,.61-.53c1.2.15,2.23,0,2.35-1.52a3.33,3.33,0,0,0,.63-.56,1.71,1.71,0,0,0,2.49-1.29l2.59-1.57a6.37,6.37,0,0,0,5.19-3.63l7.92-6.19a1.75,1.75,0,0,0,2.17-1.75l1.8-1.32a7.19,7.19,0,0,0,5.2-4.68l0,0c2.07-.85,4.09-1.76,4.67-4.26Z" transform="translate(-77.11 -31.02)"/><path class="cls-2" d="M701.87,812.77a2.85,2.85,0,0,1-.72.41,1.68,1.68,0,0,0-2.32,1.41l-1.64.65a1.77,1.77,0,0,0-2.38,1.3C677.52,827,658.32,833.41,640.14,842c-17.87,8.4-36.95,13.15-55.18,20.35-1.69.67-3.33,1.21-4.47,2.92q-21.54,32.34-43.2,64.61c-6.7,10-11.22,21.4-19,30.84-4,4.91-4.55,5.26-8.61.56A65.46,65.46,0,0,1,501.11,949c-8.39-16-20.67-29.31-30.75-44.14-8.13-12-15.9-24.17-23.59-36.43-1.55-2.46-3.33-4.86-6.3-5.28-16.3-2.34-30.28-10.92-45.3-16.65-19.9-7.6-39.48-16-57.95-26.69l-14.64-8.46c-1.72-3.54.82-6.81.6-10.35-.61-9.88-2.44-19.33-7.58-28a11.15,11.15,0,0,1-1.48-4.73c-.4-5.34-3.61-8.85-7.47-11.87S298.8,750.89,295,748c-5.53-4.24-11.51-8.08-16.28-13.07-9.16-9.61-17.56-19.93-26.36-29.89-9.89-11.19-20.64-21.73-29.63-33.6-10.48-13.85-20.89-27.86-29.11-43.32-14.16-26.67-27.07-53.85-33.83-83.47-5.71-25-8.42-50.4-9.69-76-1.08-22,1.71-43.89,5.43-65.47,3.8-22,9.46-43.67,18.36-64.33,3.74-8.69,6.72-17.73,10.83-26.22,10.52-21.7,23.22-42.15,36.42-62.31,7.23-11,16-20.78,24.91-30.46,12-13.08,23.78-26.39,38.24-36.91,10.06-7.32,20.71-13.94,30.15-22,11.6-9.9,19.73-23.18,30.59-33.9,3-2.92,5.59-6.21,8.76-8.88,9.92-8.33,20.44-15.89,31-23.37,4.9-3.47,10.87-5.92,13.46-12C418.65,76.12,438.69,68.3,459.77,64c31.76-6.51,63.55-8,95.61-1.64,18.26,3.65,36.17,8.19,53.42,15.21.81,1.72,2.58,2.07,4.09,2.58a61.11,61.11,0,0,1,18.93,10.2c7.17,5.71,15.43,10,22.65,15.75,15.52,12.33,30.58,25.2,42,41.6,7.85,11.28,18.83,19,29.57,26.92C737.5,183,750,190.41,759.46,201c20.32,22.57,40.47,45.42,56.14,71.65C824,286.72,832.24,301,839,316.07c3.53,7.86,5.64,16.21,8.75,24.12,3.19,8.12,6.27,16.21,8.13,24.65q5.83,26.51,10,53.33a345.17,345.17,0,0,1,3.84,54.16A231.42,231.42,0,0,1,866.35,509c-6.05,37-15.76,72.76-32.38,106.55-8.27,16.81-19,31.94-29.37,47.4a296.31,296.31,0,0,1-34.18,41.53c-5.72,5.88-8.88,12.87-7.35,21.23a70.81,70.81,0,0,1,.84,12.41c0,1.74-.48,4.19,2,4.48a5.19,5.19,0,0,0,5.13-2.38c1.42-2.24,3.19-4.25,4.66-6.46,1.21-1.83,2.4-2.21,3.9-.43.63.75,1.1,1.86,2.32,1.42,1.62-.59.7-1.82.68-2.93-.06-2.67,1.52-4.73,4.08-4.15,3.66.83,7.07,9.65,4.87,12.53C788,744.8,784,749,780.25,753.36c-3,3.59-7.73,5.79-9.08,10.79l0,0c-2.55-.1-3.54,1.61-4.25,3.66l-.06,0c-2.16.75-4.61,1.19-4.67,4.26l0,0c-2.86.31-4.26,2.24-5.2,4.68l-1.8,1.32c-1.38-.24-2,.45-2.17,1.75l-7.92,6.19c-2.33.35-4.31,1.2-5.19,3.63l-2.59,1.57c-1.22-.31-2.12,0-2.49,1.29a3.33,3.33,0,0,1-.63.56,1.83,1.83,0,0,0-2.35,1.52,3.41,3.41,0,0,1-.61.53c-1.17-.07-2.18.09-2.38,1.52l-10.57,6.56a1.77,1.77,0,0,0-2.41,1.39l-9.66,5.5A3.94,3.94,0,0,0,701.87,812.77ZM456.05,833.06a2.09,2.09,0,0,0,2.05-2h0A22.52,22.52,0,0,0,465,826c.53-2.13,3.27-2.08,4-4A1.88,1.88,0,0,0,471,820h0c2.16-1.49,4.74-2.61,5.28-5.63l.11-.09c3.18-2.44,6.9-4.32,8.62-8.29l0,0c1.77-.25,2.92-1.1,3-3h0A55.43,55.43,0,0,0,504.08,787c2.45-2.13,2.56-5.1,2.82-8,0-.35.07-.7.1-1.05l1.13-1.42c1.87-9.22,1.69-18.72-6-24.76-13.28-10.41-31.13-10.93-44.1.65-15.06,13.44-30.52,26.57-44.26,41.48-1.61.5-2.73,1.4-2.63,3.28a3.09,3.09,0,0,1-.45.68A1.9,1.9,0,0,0,409,800l-1.55,2.75a1.91,1.91,0,0,0-1.17,2.5c.18,1.74-.92,3.14-.93,5.06,0,8,4.18,13.8,8.66,19.63,2.08,5.33,7.65,9.72,12.33,9.69l1.59.34c6.29,3.12,12.5,3.37,18.61-.46l1.41-.44c1.82-.41,3.59-.91,4.48-2.8L454,835a1.93,1.93,0,0,0,2.09-2ZM302.84,664.88a1.81,1.81,0,0,0-1.75,2.21h0c-2.87,1-4.16,3.31-5,6l-4.46,5.68c-6.35,5.55-8.07,14.37-4.38,22.51,2.78,4.94,5.58,9.87,9.8,13.79a2.92,2.92,0,0,0,3.05,2.86l0,0a8.86,8.86,0,0,0,7.2,4.67l6.67,2.14c1.13,1.51,2.26,1.29,3.38,0C328,720.32,335.89,712,344.62,705c5.25-4.26,10.15-9,13.54-15,1.39-.39,2.31-1.13,2-2.76l1.69-2.78a2.57,2.57,0,0,0,1.58-2.87l.84-2.63c3.2-7.22,2.29-14-2.31-20.29l-2.29-3.76a1.89,1.89,0,0,0-1.51-2.53c-1-.86-1.63-2.26-3.13-2.54-8.43-8.89-27.31-9-36.12-.18l-1.83,1.51c-3.89,1.26-6.27,4.16-8.21,7.54l-.14.15a3.54,3.54,0,0,0-2.87,2.92l-.06.07a3.37,3.37,0,0,0-2.9,3ZM718.91,703l-.85-1-.12-.12c-3.09-5.36-6.51-10.44-11.76-14l-2.42-3a2.73,2.73,0,0,0-2.55-2.83l-1.89-2.31.07-.27-.28.08c-1.67-3.26-5-5.08-7.13-7.9l-.65-.81c-4.5-4.87-8.89-9.85-13.51-14.61Q640,617.4,602.06,578.54c-14.94-15.4-30-30.69-46.24-44.7-.09-1.63-1.36-1.59-2.5-1.82-7.4-1.48-14.84-1.07-22.24-.26-2.84.31-5.84-.06-8.54,2a83.91,83.91,0,0,0-13.61,12.68c-1.52,1.29-3.15,2.46-4.53,3.88-9,9.32-17.75,19-27.08,28-13.47,13-30,19.14-48.59,18.38-17.91-.74-34.43-6.16-48.79-17.47-8.17-6.44-13.29-14.53-16.26-24.43-2.33-7.73.83-13.6,4.91-19.47,1.29-1.86,1.16-3.46-.11-5.46a371,371,0,0,1-26.11-47.68c-6.58-14.69-15.64-28.34-18.46-44.59-.52-3-3-2.62-5.17-2.66-11.66-.25-23.31-.57-35-.66q-50-.39-100-.6c-6.68,0-6.76.1-7.21,7-1.53,23.15-.78,46.12,3.91,69,2.47,12.05,3.51,24.36,7.12,36.22a376.84,376.84,0,0,0,26.24,64.07c7.26,14,14.81,27.84,25.47,39.84,6.14,6.91,13.2,13.18,17.8,21.42,1.13,2,2.37,1.4,3.54.13,2.69-2.94,5.16-6.1,8-8.89,9.36-9.16,18.61-18.45,28.35-27.18,7.69-6.9,16.3-12.58,26.5-15.4,30-8.3,60.66,13.33,65.79,39.28,1,5,2.24,6.09,7.31,4.61,17.24-5,34.19-5.83,50.75,3.47,18.69,10.49,27.59,26.72,24.78,47.69-.38,2.78.81,3.15,3,3.12,5.17-.07,10.34-.19,15.5-.12,20.47.26,34,12.36,40.72,27.88,7.16,16.51,7.49,33.64-1.83,49.95-1.84,3.23-1.14,5,1.94,7.35,7.36,5.62,14.59,11.39,21,18.25,7.36,7.88,13.16,17.18,22,23.73,3.41,2.52,5.34,2.13,7.83-1a166.38,166.38,0,0,0,13.45-19c5.49-9.14,6.65-19.21,2-28.63a99.23,99.23,0,0,0-13.27-20.79c-9.42-11-20.06-20.82-30.17-31.13-20.61-21-41-42.29-62.71-62.15a34,34,0,0,1-7.28-9.43c-1.73-3.34-1.94-6.69.76-9.73,6.15-6.93,16.74-7.81,22.85-1,9.31,10.36,19.42,19.88,29.52,29.41,7.16,6.75,14.12,13.66,20.57,21.08,8.83,10.16,17.51,20.47,26.6,30.39,15.16,16.56,30.9,32.59,45.24,49.91,5.46,6.6,11.22,13,16.88,19.42,1.74,2,3.52,2.92,5.83.5,3.77-4,7.44-8.08,11.67-11.5s5.35-7.66,5.59-12.65c.8-16.76-3.81-31.73-14.75-44.56-10.34-12.13-20.87-24.07-32-35.55-10.22-10.55-20.05-21.51-30.15-32.21-17.13-18.17-34.42-36.2-51.5-54.42-2.18-2.33-4.81-5.07-4.07-8.68,2-9.92,14.85-14.28,22.2-7.43,18,16.77,34.21,35.26,51.79,52.44C628.42,675,644.69,692.5,661,710a480.56,480.56,0,0,1,44.48,56.25c-.25,1.82,1.27,1.91,2.37,2.4l1,1.39c-.56,1.11-.23,1.65,1,1.61l.92,1.44c-.58,1.19-.11,1.68,1.12,1.65l.81,2.22c-.63,1.41-.18,1.95,1.33,1.65l1.08.56c-.31,2.39,1.24,2.68,3.07,2.79,5.11.32,8.69-2.31,10.83-6.48a37,37,0,0,0,3.55-24,11.63,11.63,0,0,0-.15-6c.83-8.77-.61-17.34-2.76-25.73-1-4-2.31-8.27-6.39-10.63-.22-.45-.43-.89-.64-1.34.37-2.78-1.33-4-3.6-4.72ZM358.23,792c.81,1.47,1.93,2.21,3.65,1.6l5.32.08c9.58-1.14,17-6.75,23.44-13,16.41-16,32.19-32.62,48.08-49.13,6.22-6.46,9.07-14.2,7.21-23.28-1.88-9.84-7-17.73-16.59-20.73C417.45,683.79,406,686,396,694c-11.36,9.06-20.23,20.71-31.37,30a80.17,80.17,0,0,0-17.69,20.15C337.94,758.93,343.52,782.77,358.23,792Zm409.91-541.3c-2.11-4.82-5.7-8.45-9.47-11.94l-4.54-5a1.65,1.65,0,0,0-1.83-1.87l-1.11-1.23a5.19,5.19,0,0,0-3.56-3.91l-15.44-14.31c-.66-1.49-1.48-3-3.41-2.38-.93.31-1.26,1.38.05,2l1.35,3.82A1.42,1.42,0,0,0,731,218c.77,3,1.54,6,2.32,8.95-.39.79-.4,1.5.46,2l1.47,7a1.34,1.34,0,0,0,.5,2l.63,2.9a1.4,1.4,0,0,0,.42,2.11l.6,2.88c-.45,1.12-.59,2.19.4,3.12.22.95.43,1.9.65,2.85a1.39,1.39,0,0,0,.37,2.14l.66,7.86a2.41,2.41,0,0,0,.35,3.14c1.53,16.09.77,32.13-1.09,48.15a1.38,1.38,0,0,0-.44,2.08l-.48,5.36v-.1q-1,5.32-2.08,10.66a1.3,1.3,0,0,0-.52,2l-2.55,10c-.88.36-1,1-.65,1.81a386.69,386.69,0,0,1-20.59,57.59c-2,4.38-1.47,5.32,3.68,5.48,32.31,1,64.63-.89,96.94.46,2.14,2.15,4.18,2.45,6-.37l3-.62c.11.3.2.83.34.85,5,.58,9.46-1.62,14.1-2.88.61-.17.44-1.12.12-1.74l-.36-4.25c.74-.91.81-1.73-.31-2.39l-.63-6.62c.84-1.26,1-2.42-.44-3.38-.18-1.2-.37-2.4-.56-3.61.76-1,.7-1.87-.6-2.39-.39-1.57-.78-3.13-1.18-4.69.07-3.38-.4-6.6-2.66-9.32l-.34-1.67a4.91,4.91,0,0,0-1.61-5.32c-.16-.55-.31-1.11-.46-1.66.54-2.9-.68-5.22-2.49-7.33l-1.26-3.8a5.12,5.12,0,0,0-1.8-5.22c-.43-1.24-.87-2.47-1.3-3.71a1.75,1.75,0,0,0-.73-2.6l-5.16-12.45c.53-1.34.11-2.17-1.32-2.46l-.71-1.52c.54-1.35.07-2.15-1.33-2.47L806,309a1.65,1.65,0,0,0-1.57-2.25l-1.62-3.57a1.67,1.67,0,0,0-1.38-2.41,2.69,2.69,0,0,1-.43-.8,8.68,8.68,0,0,0-3.47-6.25L793,286a17.91,17.91,0,0,0-5.64-9.15,3,3,0,0,1-.51-.76,74.2,74.2,0,0,0-17.55-24.21ZM532.93,86.6a174.4,174.4,0,0,0-46.32-.6c-30.29,3.56-58.75,12.64-84.46,29.44-23.74,15.51-44.94,33.72-60.17,58-9.29,14.79-18.45,29.75-23.5,46.64-14.76,49.45-11.38,98.57,5.16,146.76a604.64,604.64,0,0,0,30,70.76c11,22.31,20.71,45.26,32.12,67.38,3.77,7.31,4.13,11.28,10.92,1.43,4.33-6.28,11.05-10.73,13.77-18.19a7.33,7.33,0,0,0,5.25-2.49c4.08-4.57,8.64-8.76,12.61-13.31C440.84,458,455,445.22,468.79,432c11.29-10.82,24.93-16.85,40.21-19.34,19.79-3.22,39.75-2.92,59.68-2.5,9,.19,17.91,1.24,26.9.59,9.62-.1,19.17,1.67,28.82,1.13,4.93-.27,10,.49,14.78-.54,4.42-1,9.18,1.11,13.24-1.78l21.8-.13c.95,1.91,2,1.42,2.69-.07.91-2,1.52-4.09,2.26-6.14a6.62,6.62,0,0,0,2.51-4.18c1-5.7,3.16-11,5.29-16.36,3-7.52,4.51-15.64,8.41-22.76a52.12,52.12,0,0,0,5.63-18.2,105.15,105.15,0,0,1,3.63-17.87c3.16-9.66,3.89-19.4,4.44-29.24.84-14.78-1.34-29.52-1.18-44.3,0-1.33-.68-2.62-.8-3.82-.55-5.8-4.1-10.69-4.87-16.29a61.35,61.35,0,0,0-3-11.51c1.14-1.69.15-3.25-.44-4.73-2.83-7.09-5.23-14.43-8.78-21.15-7.77-14.71-17.69-28.05-28.67-40.49-4.15-4.71-8.13-10-14.11-12.83l-2-1.83c.05-.29.25-.67.14-.86a.75.75,0,0,0-1.22-.18c-1.31-1-2.65-2-3.93-3-20.44-16.56-41.78-31.58-67.48-38.94-7.9-2.26-15.88-4.51-24.22-4.72a52.32,52.32,0,0,0-13.75-3.09C534.32,86,533.68,86,532.93,86.6ZM666,437.89l-47-.05c-1.31-1.07-2.87-.66-4.32-.67-17.63-.09-35.25-.2-52.88-.17-5.63,0-11.29-.51-16.9.44-2.67,0-5.42-1.06-8,.64-11.63-.2-23.23.08-34.17,4.69C488,449,476.74,460,466.05,471.29c-17.55,18.55-35,37.2-52.85,55.46-6.14,6.29-12.37,12.51-18.45,18.86-2,2.13-3.56,4.79-.86,7.42,3.43,3.34,6.92,6.75,12,7.52,2.82,3.49,7.12,3.86,11,4.75,18.88,4.41,36.33,2.29,49.34-13.71,10.49-12.91,22.72-24.09,34.07-36.13,4.87-5.16,9.91-10.19,17.86-10.83,12.29-1,24.57-1.77,36.89-1.15a33.5,33.5,0,0,1,21.66,8.8c3.8,3.47,5.28,8.73,9.61,11.68,1.14,4,4.27,6.1,7.46,8.2l3.87,3.24,1,.91,1.42,1.74a2.32,2.32,0,0,0,1.83,2l6.09,6.15.84.9,7.19,7c1.08,1.24,2.07,2.57,3.24,3.71,15.8,15.45,31.42,31.05,46.44,47.29,16.79,18.16,34.2,35.76,51.57,53.38,9.55,9.68,19.64,18.8,27.08,30.38,3,4.7,4.39,4.52,8.23.19a424.76,424.76,0,0,0,30-38.4c14.8-21.12,28.56-42.77,37.62-67.17a433.94,433.94,0,0,0,16.2-56.37c2.27-10.13,2.86-20.64,4.21-31,.1-.77.2-1.54.31-2.31a22,22,0,0,0,1.63-12.77q.2-4.57.41-9.17a48.63,48.63,0,0,0-.22-20.73c-.09-1.38-.17-2.75-.25-4.12-.41-8.91-.67-9.26-9.32-9-6.75.23-13.48.76-20.22,1.16L798.93,439c-3.92-1.53-7.94-1.1-11.95-.54l-13-.54c-1-.87-2-1.14-2.92.21-5.45-.33-10.91-.93-16.36-.93-27.23,0-54.47-.54-81.69.51A8.84,8.84,0,0,0,666,437.89ZM293.32,211.19a2.78,2.78,0,0,0-2.89,1.05c-8.32,7.41-16.17,15.3-23.93,23.31a313.66,313.66,0,0,0-66.17,102.22c-8.05,20-13,40.53-17.23,61.4-1.35,6.64-1.07,6.72,5.94,6.81,36.31.46,72.64-.67,108.94,1.06,11.49.54,11.12.44,6.84-10.71-11.42-29.76-21.3-60-22.91-92.17-1.28-25.55-.72-51,6.75-75.77C290.35,222.75,293.13,217.34,293.32,211.19ZM506.74,817.5c-.88,1-1.57,2-2.36,2.77-10.29,10.64-20.51,21.33-30.91,31.85-5.07,5.13-5.39,6.63-.65,12.06A150.61,150.61,0,0,1,488,884.51c6.42,10.47,15.13,18.81,24.27,26.82,2.21,1.93,3.85,1.77,5.41-.32,9.22-12.36,19.25-24.25,25-38.78,1.65-4.18,5.26-8.21,1.23-13.72-10.41-14.24-22.85-26.59-34.94-39.29A21.08,21.08,0,0,0,506.74,817.5Z" transform="translate(-77.11 -31.02)"/><path class="cls-3" d="M398.26,82.77c-2.59,6.11-8.56,8.56-13.46,12-10.58,7.48-21.1,15-31,23.37-3.17,2.67-5.8,6-8.76,8.88-10.86,10.72-19,24-30.59,33.9-9.44,8.06-20.09,14.68-30.15,22C269.82,193.47,258,206.78,246,219.86c-8.87,9.68-17.68,19.42-24.91,30.46-13.2,20.16-25.9,40.61-36.42,62.31-4.11,8.49-7.09,17.53-10.83,26.22-8.9,20.66-14.56,42.32-18.36,64.33-3.72,21.58-6.51,43.42-5.43,65.47,1.27,25.57,4,51,9.69,76,6.76,29.62,19.67,56.8,33.83,83.47,8.22,15.46,18.63,29.47,29.11,43.32,9,11.87,19.74,22.41,29.63,33.6,8.8,10,17.2,20.28,26.36,29.89,4.77,5,10.75,8.83,16.28,13.07,3.81,2.92,7.87,5.53,11.66,8.49s7.07,6.53,7.47,11.87a11.15,11.15,0,0,0,1.48,4.73c5.14,8.63,7,18.08,7.58,28,.22,3.54-2.32,6.81-.6,10.35-8.61-3.67-16-9.31-23.84-14.31a385.57,385.57,0,0,1-32.66-23.68c-18.52-14.8-36.71-30-52.31-48.07-7.82-9-16-17.77-23.15-27.4-8.19-11.1-15.89-22.53-23.37-34.12-22.06-34.19-36.46-71.66-46.24-110.9a317.34,317.34,0,0,1-9-60.54,412.49,412.49,0,0,1,7.85-105.17,453.41,453.41,0,0,1,15.61-55.62c7.52-22,18.14-42.45,29.19-62.7,14.14-25.91,32-49.26,51.47-71.39s41.73-41.59,65.58-58.82a343.29,343.29,0,0,1,69.85-39.29c12.13-5,24.14-10.28,36.65-14.31C391.5,84,394.64,82.3,398.26,82.77Z" transform="translate(-77.11 -31.02)"/><path class="cls-3" d="M771.17,764.15c1.35-5,6-7.2,9.08-10.79,3.72-4.4,7.77-8.56,11.26-13.14,2.2-2.88-1.21-11.7-4.87-12.53-2.56-.58-4.14,1.48-4.08,4.15,0,1.11.94,2.34-.68,2.93-1.22.44-1.69-.67-2.32-1.42-1.5-1.78-2.69-1.4-3.9.43-1.47,2.21-3.24,4.22-4.66,6.46a5.19,5.19,0,0,1-5.13,2.38c-2.44-.29-2-2.74-2-4.48a70.81,70.81,0,0,0-.84-12.41c-1.53-8.36,1.63-15.35,7.35-21.23A296.31,296.31,0,0,0,804.6,663c10.34-15.46,21.1-30.59,29.37-47.4C850.59,581.78,860.3,546,866.35,509a231.42,231.42,0,0,0,3.42-36.69,345.17,345.17,0,0,0-3.84-54.16q-4.18-26.84-10-53.33c-1.86-8.44-4.94-16.53-8.13-24.65-3.11-7.91-5.22-16.26-8.75-24.12-6.76-15.06-15-29.35-23.4-43.47-15.67-26.23-35.82-49.08-56.14-71.65-9.48-10.54-22-17.92-33.41-26.35-10.74-7.9-21.72-15.64-29.57-26.92-11.43-16.4-26.49-29.27-42-41.6-7.22-5.74-15.48-10-22.65-15.75a61.11,61.11,0,0,0-18.93-10.2c-1.51-.51-3.28-.86-4.09-2.58,7.86,2.56,15.8,4.89,23.56,7.72,15.44,5.64,31.17,10.47,46.25,17.16,24.15,10.7,46.37,24.51,67.89,39.7a384.49,384.49,0,0,1,62,54.57,363.93,363.93,0,0,1,36.33,46.69c13.64,20.88,26.68,42.17,35.87,65.47,11.17,28.32,21.28,57,25.55,87.35,4.49,31.85,7.88,63.8,4.4,96a487.66,487.66,0,0,1-19.23,93.12c-9.95,32-24.48,61.33-42.8,89.13a475.42,475.42,0,0,1-60.1,74.18C783.08,754.13,777.67,759.79,771.17,764.15Z" transform="translate(-77.11 -31.02)"/><path class="cls-3" d="M756.94,776.84c.94-2.44,2.34-4.37,5.2-4.68A7.19,7.19,0,0,1,756.94,776.84Z" transform="translate(-77.11 -31.02)"/><path class="cls-3" d="M762.16,772.14c.06-3.07,2.51-3.51,4.67-4.26C766.25,770.38,764.23,771.29,762.16,772.14Z" transform="translate(-77.11 -31.02)"/><path class="cls-3" d="M739.86,789.73c.88-2.43,2.86-3.28,5.19-3.63A6.37,6.37,0,0,1,739.86,789.73Z" transform="translate(-77.11 -31.02)"/><path class="cls-3" d="M766.89,767.83c.71-2.05,1.7-3.76,4.25-3.66C770.44,766.21,769.2,767.65,766.89,767.83Z" transform="translate(-77.11 -31.02)"/><path class="cls-3" d="M701.87,812.77a3.94,3.94,0,0,1,4.3-2.6A4.19,4.19,0,0,1,701.87,812.77Z" transform="translate(-77.11 -31.02)"/><path class="cls-3" d="M753,779.91c.15-1.3.79-2,2.17-1.75A1.75,1.75,0,0,1,753,779.91Z" transform="translate(-77.11 -31.02)"/><path class="cls-3" d="M734.78,792.59c.37-1.31,1.27-1.6,2.49-1.29A1.71,1.71,0,0,1,734.78,792.59Z" transform="translate(-77.11 -31.02)"/><path class="cls-3" d="M731.8,794.67a1.83,1.83,0,0,1,2.35-1.52C734,794.69,733,794.82,731.8,794.67Z" transform="translate(-77.11 -31.02)"/><path class="cls-3" d="M728.81,796.72c.2-1.43,1.21-1.59,2.38-1.52C730.93,796.54,730,796.87,728.81,796.72Z" transform="translate(-77.11 -31.02)"/><path class="cls-3" d="M715.83,804.67a1.77,1.77,0,0,1,2.41-1.39A1.74,1.74,0,0,1,715.83,804.67Z" transform="translate(-77.11 -31.02)"/><path class="cls-3" d="M698.83,814.59a1.68,1.68,0,0,1,2.32-1.41A1.61,1.61,0,0,1,698.83,814.59Z" transform="translate(-77.11 -31.02)"/><path class="cls-3" d="M694.81,816.54a1.77,1.77,0,0,1,2.38-1.3A1.67,1.67,0,0,1,694.81,816.54Z" transform="translate(-77.11 -31.02)"/><path class="cls-4" d="M555.82,533.84c16.27,14,31.3,29.3,46.24,44.7q37.82,39,75.76,77.8c4.62,4.76,9,9.74,13.51,14.61-.14.56.11.8.65.81,2.18,2.82,5.46,4.64,7.13,7.9l.21.19,1.88,2.31c-.12,1.82.88,2.64,2.56,2.83l2.42,3c2.65,5.73,6.85,10.15,11.76,14l.12.12.85,1,.05.07c-.08,2.55,1.59,3.77,3.6,4.73l.63,1.34c.35,1.07.68,2.15,1.06,3.21,2.08,5.8,4.94,11.17,5.31,17.72.27,5.08.49,10.55,2.79,15.43a11.59,11.59,0,0,1,.15,6c-2.39,1-1.18,3.14-1.17,4.67a44.1,44.1,0,0,1-2,14.16c-2.54,7.81-6.41,10.44-14.33,8.82l-1.08-.55a1.39,1.39,0,0,0-1.33-1.66l-.81-2.21c.22-1-.06-1.57-1.12-1.66-.31-.48-.61-1-.91-1.44a1.15,1.15,0,0,0-1-1.61l-1-1.39c0-1.6-.66-2.5-2.37-2.4A480.56,480.56,0,0,0,661,710c-16.27-17.49-32.54-35-49.6-51.69-17.58-17.18-33.82-35.67-51.79-52.44-7.35-6.85-20.18-2.49-22.2,7.43-.74,3.61,1.89,6.35,4.07,8.68,17.08,18.22,34.37,36.25,51.5,54.42,10.1,10.7,19.93,21.66,30.15,32.21,11.12,11.48,21.65,23.42,32,35.55C666,757,670.63,772,669.83,788.71c-.24,5-1.37,9.24-5.59,12.65s-7.9,7.55-11.67,11.5c-2.31,2.42-4.09,1.49-5.83-.5-5.66-6.45-11.42-12.82-16.88-19.42-14.34-17.32-30.08-33.35-45.24-49.91-9.09-9.92-17.77-20.23-26.6-30.39-6.45-7.42-13.41-14.33-20.57-21.08-10.1-9.53-20.21-19-29.52-29.41-6.11-6.79-16.7-5.91-22.85,1-2.7,3-2.49,6.39-.76,9.73a34,34,0,0,0,7.28,9.43c21.75,19.86,42.1,41.15,62.71,62.15,10.11,10.31,20.75,20.12,30.17,31.13a99.23,99.23,0,0,1,13.27,20.79c4.65,9.42,3.49,19.49-2,28.63a166.38,166.38,0,0,1-13.45,19c-2.49,3.08-4.42,3.47-7.83,1-8.87-6.55-14.67-15.85-22-23.73-6.41-6.86-13.64-12.63-21-18.25-3.08-2.35-3.78-4.12-1.94-7.35,9.32-16.31,9-33.44,1.83-49.95-6.73-15.52-20.25-27.62-40.72-27.88-5.16-.07-10.33,0-15.5.12-2.16,0-3.35-.34-3-3.12,2.81-21-6.09-37.2-24.78-47.69-16.56-9.3-33.51-8.51-50.75-3.47-5.07,1.48-6.33.36-7.31-4.61-5.13-25.95-35.82-47.58-65.79-39.28-10.2,2.82-18.81,8.5-26.5,15.4-9.74,8.73-19,18-28.35,27.18-2.84,2.79-5.31,5.95-8,8.89-1.17,1.27-2.41,1.9-3.54-.13-4.6-8.24-11.66-14.51-17.8-21.42-10.66-12-18.21-25.83-25.47-39.84a376.84,376.84,0,0,1-26.24-64.07c-3.61-11.86-4.65-24.17-7.12-36.22-4.69-22.84-5.44-45.81-3.91-69,.45-6.85.53-7,7.21-7q50,.28,100,.6c11.66.09,23.31.41,35,.66,2.13,0,4.65-.3,5.17,2.66,2.82,16.25,11.88,29.9,18.46,44.59a371,371,0,0,0,26.11,47.68c1.27,2,1.4,3.6.11,5.46-4.08,5.87-7.24,11.74-4.91,19.47,3,9.9,8.09,18,16.26,24.43,14.36,11.31,30.88,16.73,48.79,17.47,18.58.76,35.12-5.37,48.59-18.38,9.33-9,18-18.66,27.08-28,1.38-1.42,3-2.59,4.53-3.88,1.77.37,3.66,1.06,4.95-.9,2.78-4.22,8-4.86,11.49-7.87,3.88-3.35,8.19-2.71,12.56-2.9C543.89,534.5,549.92,535.42,555.82,533.84Z" transform="translate(-77.11 -31.02)"/><path class="cls-4" d="M674.22,409.46l-21.79.13c-1.13-1.07-2.53-.51-3.8-.51-13.32,0-26.64,0-40,0a72,72,0,0,0-13.1,1.68c-9,.65-17.93-.4-26.9-.59-19.93-.42-39.89-.72-59.68,2.5-15.28,2.49-28.92,8.52-40.21,19.34-13.78,13.19-28,26-40.52,40.4-4,4.55-8.53,8.74-12.61,13.31a7.33,7.33,0,0,1-5.25,2.49c-3.47-3.53-6-7.82-8.37-12-7.85-13.6-12.49-28.63-17.87-43.26-6.52-17.77-12.77-35.65-19.49-53.36-9.45-25-16.18-50.65-17.7-77.43-1.35-23.92.79-47.43,8.93-70.22,8.84-24.77,22.5-46.57,39.71-66.29,20.74-23.75,48.17-36.46,77.26-46a99.8,99.8,0,0,1,31.44-4.58q14.74.06,29.49,0c4,0,8.36-3.66,7.79-7.18a13.32,13.32,0,0,1,.75-7.23c.56-1.41.57-2.73-.43-3.71-2.12-2.08-1.64-3,1-4.18,1.9-.85,3.53-2.35,5.69-2.78,8.34.21,16.32,2.46,24.22,4.72,25.7,7.36,47,22.38,67.48,38.94,1.28,1,2.62,2,3.93,3,0,.75.24,1.18,1.08,1l2,1.83c-.43,1.63.27,2.63,1.47,3.84,6.15,6.19,12.34,12.36,18.1,18.91,5.62,6.39,9.58,14,14.59,20.93a74.83,74.83,0,0,1,11.76,24.72c1.07,4,2,8.35,6.09,10.8a61.35,61.35,0,0,1,3,11.51c.77,5.6,4.32,10.49,4.87,16.29.12,1.2.81,2.49.8,3.82-.16,14.78,2,29.52,1.18,44.3-.55,9.84-1.28,19.58-4.44,29.24A105.15,105.15,0,0,0,701,341.75a52.12,52.12,0,0,1-5.63,18.2c-3.9,7.12-5.4,15.24-8.41,22.76-2.13,5.34-4.28,10.66-5.29,16.36a6.58,6.58,0,0,1-2.51,4.17C676.15,404.22,675.83,407.35,674.22,409.46ZM617,265.85c.23-59.4-48-105.62-108.09-103.52-57.06,2-105,41.51-102.68,111.88,1.77,54.44,46.2,101.31,108.72,99.09C570.86,371.3,616.52,328.79,617,265.85Z" transform="translate(-77.11 -31.02)"/><path class="cls-5" d="M842.52,447c.08,1.37.16,2.74.25,4.12-1.07,6.92-1.49,13.84.22,20.73q-.21,4.59-.41,9.17c-2.07,4.06-2.92,8.28-1.63,12.77q-.16,1.15-.3,2.31c-1,.09-1.2.8-1.61,1.58-1.82,3.46-1.15,7.63-2.67,10.89A37.25,37.25,0,0,0,833,525.47a10.16,10.16,0,0,1-2.13,6.36c-3.57,5.18-6.48,10.73-5,17.5a7.84,7.84,0,0,1-.71,5.37,29.62,29.62,0,0,0-3.8,13.63c-.14,11.92-9.53,20.31-11.67,31.78-1.38,7.46-6.94,14.4-11.55,20.93-3.49,5-5.6,10.9-10.23,15-3.51,3.09-2.79,8.46-6.32,11.22-4.39,3.42-6.57,8.43-10,12.51-6,7.15-10.79,15.21-18.29,21.2-4.83,3.87-4.83,4.52-8.49-.66a6.3,6.3,0,0,0-.89-1.15c-12.7-10.66-23.32-23.43-35.15-35-2.79-2.72-6.21-4.56-8.62-8a87,87,0,0,0-13.84-15.46c-3.33-2.87-6.58-5.91-9.71-8.93-7.64-7.34-14.62-15.37-21.78-23.2-4.22-4.61-10.37-7.46-12.61-13.9a5.36,5.36,0,0,0-1.83-2.27c-6.41-4.81-11.73-10.74-16.93-16.72-2.44-2.82-4.42-3.61-7.48-1.62l-7.18-7c0-.57-.26-.9-.85-.91L601.9,540c.11-1.33-.49-2-1.83-2l-1.42-1.74c0-.74-.33-1-1-.91q-1.93-1.62-3.86-3.25c-.89-4.18-4.08-6.27-7.47-8.19-4.33-3-5.81-8.21-9.61-11.68a33.5,33.5,0,0,0-21.66-8.8c-12.32-.62-24.6.16-36.89,1.15-7.95.64-13,5.67-17.86,10.83-11.35,12-23.58,23.22-34.07,36.13-13,16-30.46,18.12-49.34,13.71-3.84-.89-8.14-1.26-11-4.75a59.31,59.31,0,0,1,5.66-3.15c19.07-8.08,32.43-23,45.54-38.14,8-9.24,15.25-19.19,23.5-28.27,7.95-8.77,17.22-16,26.17-23.67a200.56,200.56,0,0,1,26.16-18.88c4.86-3,5.86-5.66,4-10.36,2.54-1.7,5.29-.67,8-.64.75,2.35,2.72,1.44,4.22,1.44q32.39.09,64.78,0c1.73,0,3.71.74,5.1-1.07l47,.05c2.37,1.58,4.7,1.75,7-.19,27.22-1.05,54.46-.5,81.69-.51,5.45,0,10.91.6,16.36.92,1.08,1.46,2,1.07,2.92-.2l13,.53c3.86,2.68,7.89,1.87,11.95.55l14.05.23c.57,2.38,2.53,1.68,4,1.71,4.45.07,8.92.19,13.36,0s8.92-.55,10.48,5.19C841,446.52,842,446.72,842.52,447ZM735.2,657.33c-2.46-5.67-6.24-8.6-9.3-12.18-10.82-12.66-23.89-23-35.06-35.36-10.78-11.92-23.14-22.4-34.78-33.56-.78-.74-1.56-1.63-2.4-.58s.31,1.87,1,2.45c6.22,5,10,12.41,16.34,17.15,6.05,4.51,8.88,11.58,15.16,16.22,10.17,7.51,21,15.07,26.16,27.6a1.68,1.68,0,0,0,1.2.77c3.08.3,4,3.2,6,4.75C724.54,648.47,728.35,653.84,735.2,657.33Z" transform="translate(-77.11 -31.02)"/><path class="cls-1" d="M548.58,90c-2.16.43-3.79,1.93-5.69,2.78-2.61,1.16-3.09,2.1-1,4.18,1,1,1,2.3.43,3.71a13.32,13.32,0,0,0-.75,7.23c.57,3.52-3.75,7.16-7.79,7.18q-14.74.06-29.49,0a99.8,99.8,0,0,0-31.44,4.58c-29.09,9.55-56.52,22.26-77.26,46-17.21,19.72-30.87,41.52-39.71,66.29-8.14,22.79-10.28,46.3-8.93,70.22,1.52,26.78,8.25,52.46,17.7,77.43,6.72,17.71,13,35.59,19.49,53.36,5.38,14.63,10,29.66,17.87,43.26,2.42,4.2,4.9,8.49,8.37,12-2.72,7.46-9.44,11.91-13.77,18.19-6.79,9.85-7.15,5.88-10.92-1.43-11.41-22.12-21.13-45.07-32.12-67.38a604.64,604.64,0,0,1-30-70.76c-16.54-48.19-19.92-97.31-5.16-146.76,5-16.89,14.21-31.85,23.5-46.64,15.23-24.29,36.43-42.5,60.17-58,25.71-16.8,54.17-25.88,84.46-29.44a174.4,174.4,0,0,1,46.32.6c.45,1.23,1,1.72,1.9.3A52.32,52.32,0,0,1,548.58,90Z" transform="translate(-77.11 -31.02)"/><path class="cls-1" d="M738.42,251.78c-.22-.95-.43-1.9-.64-2.85,1.09-1.2.82-2.22-.41-3.12l-.6-2.88c1.07-.94.61-1.58-.42-2.11l-.63-2.9c1.17-1,.55-1.54-.5-2l-1.47-7c1.1-1,.59-1.54-.46-2-.78-3-1.55-6-2.32-8.95.9-1.13.36-1.72-.79-2.07l-1.35-3.82,3.36.34,15.44,14.31c-.07,2.45,1.37,3.51,3.56,3.91l1.11,1.23a1.66,1.66,0,0,0,1.83,1.87l4.54,5a26.09,26.09,0,0,0,9.47,11.94l1.17,1.18c2.23,5.86,7.1,9.86,10.59,14.83,2.22,3.17,3.24,7.31,7,9.38a3,3,0,0,0,.51.76A12.81,12.81,0,0,0,793,286l4.51,7.75c-.14,2.81.55,5.15,3.47,6.25a2.69,2.69,0,0,0,.43.8c-.51,1.35-.09,2.17,1.38,2.41l1.62,3.57c-.52,1.48.18,2.11,1.57,2.25l4.34,7.79c-.58,1.37,0,2.13,1.33,2.47.23.51.47,1,.71,1.52-.56,1.35-.07,2.15,1.32,2.46l5.16,12.45c-.93,1.19-.55,2,.73,2.6.43,1.24.87,2.47,1.3,3.71-1,2.28-.13,3.94,1.8,5.22l1.26,3.8c-.85,3,.57,5.26,2.49,7.33.15.55.3,1.11.46,1.66-1.48,2.38-.17,3.92,1.61,5.32.11.56.23,1.12.34,1.67-.57,3.53-.07,6.74,2.66,9.32.4,1.56.79,3.12,1.18,4.68-1.27,1.17-.5,1.83.6,2.4.19,1.21.38,2.41.56,3.61-1.36,1.32-.92,2.41.44,3.38l.63,6.62c-1.4,1-.72,1.71.31,2.39l.36,4.25c-4.88,1.16-10,1.58-14.56,3.77l-3,.62c-2.06-.69-4.11-1.22-6,.37-32.31-1.35-64.63.55-96.94-.46-5.15-.16-5.66-1.1-3.68-5.48A386.69,386.69,0,0,0,732,344.89c1.15-.27,1.89-.68.65-1.81l2.55-10c1.11-.42,1.74-1,.52-2q1-5.32,2.08-10.66l.34,0-.34.07.48-5.36c1.14-.49,1.51-1.13.44-2.08,1.86-16,2.62-32.06,1.09-48.15,1.09-1.18.72-2.2-.35-3.14l-.66-7.86C739.8,253,739.49,252.33,738.42,251.78Z" transform="translate(-77.11 -31.02)"/><path class="cls-1" d="M293.32,211.19c-.19,6.15-3,11.56-4.66,17.2-7.47,24.81-8,50.22-6.75,75.77,1.61,32.19,11.49,62.41,22.91,92.17,4.28,11.15,4.65,11.25-6.84,10.71-36.3-1.73-72.63-.6-108.94-1.06-7-.09-7.29-.17-5.94-6.81,4.26-20.87,9.18-41.44,17.23-61.4A313.66,313.66,0,0,1,266.5,235.55c7.76-8,15.61-15.9,23.93-23.31A2.78,2.78,0,0,1,293.32,211.19Z" transform="translate(-77.11 -31.02)"/><path class="cls-1" d="M367.2,793.66l-5.32-.07c-.76-1.58-1.8-2.52-3.65-1.61-14.71-9.21-20.29-33.05-11.34-47.88A80.17,80.17,0,0,1,364.58,724c11.14-9.28,20-20.93,31.37-30,10-8,21.5-10.17,33.39-6.44,9.58,3,14.71,10.89,16.59,20.73a1.29,1.29,0,0,0-1.59.83c-3,8.57-8.89,14.17-17.19,17.94-5.66,2.57-11.54,5.13-15.65,10.34-9.44,12-21.1,21.95-30.44,34.09-4,5.15-7.21,10.14-7.86,16.61-.17,1.75-1.11,2.55-2.66,3.16C369.27,791.72,367.46,791.7,367.2,793.66Z" transform="translate(-77.11 -31.02)"/><path class="cls-1" d="M427.94,840l-1.59-.34c-4.29-3-7.71-7.11-12.33-9.69-4.48-5.83-8.69-11.64-8.66-19.63,0-1.92,1.11-3.32.93-5.06a1.73,1.73,0,0,0,1.17-2.5L409,800c1.36-.11,1.93-.83,1.67-2.18a27.53,27.53,0,0,1,3.08-4c13.74-14.91,29.2-28,44.26-41.48,13-11.58,30.82-11.06,44.1-.65,7.7,6,7.88,15.54,6,24.75-2.74-5.13-2.9-5.28-7.23-1-3.81,3.78-7.89,7.58-12.95,8.79-5.32,1.26-8.61,3.69-12.19,7.9-11.14,13.07-22.72,25.78-33.71,39-4.4,5.29-4.45,5.33,1.26,7.93-2.67,1.2-5.51,1-8.29.87C432.66,839.91,430.32,838.06,427.94,840ZM462,761.81c-.4,2.83.88,5.61,1.95,8.38,3.46,9,8.64,12.23,17.95,11.9,2.71-.09,4-2.16,6.13-2.91,6.77-2.41,11.6-10.41,9.86-17-.69-2.62-2.72-4.38-5.78-3.28-8.62,3.07-17.21,1.29-25.56-.73C462,757.06,462,756.35,462,761.81Z" transform="translate(-77.11 -31.02)"/><path class="cls-1" d="M536.93,438.08c1.86,4.7.86,7.4-4,10.36a200.56,200.56,0,0,0-26.16,18.88c-8.95,7.66-18.22,14.9-26.17,23.67-8.25,9.08-15.47,19-23.5,28.27-13.11,15.1-26.47,30.06-45.54,38.14a59.31,59.31,0,0,0-5.66,3.15c-5.09-.77-8.58-4.18-12-7.52-2.7-2.63-1.17-5.29.86-7.42,6.08-6.35,12.31-12.57,18.45-18.86,17.85-18.26,35.3-36.91,52.85-55.46,10.69-11.31,22-22.3,36.71-28.52C513.7,438.16,525.3,437.88,536.93,438.08Z" transform="translate(-77.11 -31.02)"/><path class="cls-4" d="M506.74,817.5a21.08,21.08,0,0,1,2.26,1.72c12.09,12.7,24.53,25,34.94,39.29,4,5.51.42,9.54-1.23,13.72-5.74,14.53-15.77,26.42-25,38.78-1.56,2.09-3.2,2.25-5.41.32-9.14-8-17.85-16.35-24.27-26.82a150.61,150.61,0,0,0-15.22-20.33c-4.74-5.43-4.42-6.93.65-12.06,10.4-10.52,20.62-21.21,30.91-31.85C505.17,819.46,505.86,818.54,506.74,817.5Z" transform="translate(-77.11 -31.02)"/><path class="cls-1" d="M355,649.84c1.5.28,2.1,1.68,3.12,2.54.12,1.08,0,2.32,1.52,2.53l2.29,3.76c-2.08,2.53-2.64,5.39-2.66,8.68-.07,9.18-7.58,17.5-16.58,18.82-1,.15-2.27-.35-3.13,1.25.88.19,1.47.38,2.07.44,7.27.77,13.44-2.17,19.39-5.82L361,682l.86,2.48-1.69,2.78c-2.42-.35-2.18,1.22-2,2.76-3.39,6-8.29,10.71-13.54,15-8.73,7.07-16.62,15.35-27.28,19.76-1.13-.85-2.26-1.08-3.38,0l-6.67-2.14a12.15,12.15,0,0,0-7.2-4.67l0,0c-.23-1.8-1.42-2.56-3.05-2.86-4.22-3.92-7-8.85-9.8-13.79-1.13-7.56-.76-14.81,4.34-21.1.23-.29,0-.93,0-1.41l4.46-5.68c2.92-.94,4-3.41,5-6h0c1.47,0,1.83-1,1.75-2.21l0,0c1.94-.05,2.95-1,2.9-3l.06-.07c1.92,0,3-.94,2.87-2.92l.14-.15c3.8-1.35,6-4.43,8.21-7.54l1.83-1.51c1.28.37,2.22-.38,3.2-1,5.09-3.17,10.62-4.06,16.6-4S349.52,648.3,355,649.84Z" transform="translate(-77.11 -31.02)"/><path class="cls-3" d="M616,554.1c3.06-2,5-1.2,7.48,1.62,5.2,6,10.52,11.91,16.93,16.72a5.36,5.36,0,0,1,1.83,2.27c2.24,6.44,8.39,9.29,12.61,13.9,7.16,7.83,14.14,15.86,21.78,23.2,3.13,3,6.38,6.06,9.71,8.93A87,87,0,0,1,700.2,636.2c2.41,3.4,5.83,5.24,8.62,8,11.83,11.54,22.45,24.31,35.15,35a6.3,6.3,0,0,1,.89,1.15c3.66,5.18,3.66,4.53,8.49.66,7.5-6,12.32-14.05,18.29-21.2,3.42-4.08,5.6-9.09,10-12.51,3.53-2.76,2.81-8.13,6.32-11.22,4.63-4.07,6.74-10,10.23-15,4.61-6.53,10.17-13.47,11.55-20.93,2.14-11.47,11.53-19.86,11.67-31.78a29.62,29.62,0,0,1,3.8-13.63,7.84,7.84,0,0,0,.71-5.37c-1.5-6.77,1.41-12.32,5-17.5a10.16,10.16,0,0,0,2.13-6.36,37.25,37.25,0,0,1,3.35-16.87c1.52-3.26.85-7.43,2.67-10.89.41-.78.63-1.49,1.61-1.58-1.36,10.34-1.95,20.85-4.22,31a433.94,433.94,0,0,1-16.2,56.37c-9.06,24.4-22.82,46-37.62,67.17a424.76,424.76,0,0,1-30,38.4c-3.84,4.33-5.22,4.51-8.23-.19-7.44-11.58-17.53-20.7-27.08-30.38-17.37-17.62-34.78-35.22-51.57-53.38-15-16.24-30.64-31.84-46.44-47.29C618.09,556.67,617.1,555.34,616,554.1Z" transform="translate(-77.11 -31.02)"/><path class="cls-5" d="M367.2,793.66c.26-2,2.07-1.94,3.34-2.44,1.55-.61,2.49-1.41,2.66-3.16.65-6.47,3.89-11.46,7.86-16.61,9.34-12.14,21-22.11,30.44-34.09,4.11-5.21,10-7.77,15.65-10.34,8.3-3.77,14.15-9.37,17.19-17.94a1.29,1.29,0,0,1,1.59-.83c1.86,9.08-1,16.82-7.21,23.28-15.89,16.51-31.67,33.14-48.08,49.13C384.23,786.91,376.78,792.52,367.2,793.66Z" transform="translate(-77.11 -31.02)"/><path class="cls-5" d="M443.31,839.11c-5.71-2.6-5.66-2.64-1.26-7.93,11-13.22,22.57-25.93,33.71-39,3.58-4.21,6.87-6.64,12.19-7.9,5.06-1.21,9.14-5,12.95-8.79,4.33-4.3,4.49-4.15,7.23,1L507,777.9c-.12.11-.35.23-.34.33a4.06,4.06,0,0,0,.24.72c-.26,2.9-.37,5.87-2.82,8A51.36,51.36,0,0,0,488,803h0a2.79,2.79,0,0,0-3,3l0,0c-3.78,1.82-7.92,3.27-8.62,8.29l-.11.09c-3.08.65-5.22,2.17-5.28,5.63h0a1.78,1.78,0,0,0-2.07,1.92c-.7,2-3.44,1.91-4,4-3.26.41-6.24,1.2-6.88,5.13h0c-1.36,0-2.06.59-2.05,2h0a1.83,1.83,0,0,0-2.09,2l-1.53,1.24c-2.15-.11-4,.29-4.48,2.8l-1.41.44Z" transform="translate(-77.11 -31.02)"/><path class="cls-3" d="M699.27,218.72c-4.07-2.45-5-6.77-6.09-10.8a74.83,74.83,0,0,0-11.76-24.72c-5-6.89-9-14.54-14.59-20.93-5.76-6.55-12-12.72-18.1-18.91-1.2-1.21-1.9-2.21-1.47-3.84,6,2.85,10,8.12,14.12,12.83,11,12.44,20.9,25.78,28.67,40.49,3.55,6.72,6,14.06,8.78,21.15C699.42,215.47,700.41,217,699.27,218.72Z" transform="translate(-77.11 -31.02)"/><path class="cls-5" d="M361,682c-5.95,3.65-12.12,6.59-19.39,5.82-.6-.06-1.19-.25-2.07-.44.86-1.6,2.13-1.1,3.13-1.25,9-1.32,16.51-9.64,16.58-18.82,0-3.29.58-6.15,2.66-8.68,4.6,6.32,5.51,13.07,2.31,20.29C361.1,677.81,361,679.88,361,682Z" transform="translate(-77.11 -31.02)"/><path class="cls-3" d="M555.82,533.84c-5.9,1.58-11.93.66-17.89.92-4.37.19-8.68-.45-12.56,2.9-3.48,3-8.71,3.65-11.49,7.87-1.29,2-3.18,1.27-4.95.9a83.91,83.91,0,0,1,13.61-12.68c2.7-2,5.7-1.68,8.54-2,7.4-.81,14.84-1.22,22.24.26C554.46,532.25,555.73,532.21,555.82,533.84Z" transform="translate(-77.11 -31.02)"/><path class="cls-3" d="M619,437.84c-1.39,1.81-3.37,1.07-5.1,1.07q-32.39.06-64.78,0c-1.5,0-3.47.91-4.22-1.44,5.61-.95,11.27-.43,16.9-.44,17.63,0,35.25.08,52.88.17C616.12,437.18,617.68,436.77,619,437.84Z" transform="translate(-77.11 -31.02)"/><path class="cls-3" d="M595.58,410.78a72,72,0,0,1,13.1-1.68c13.31,0,26.63,0,40,0,1.27,0,2.67-.56,3.8.51-4.07,2.89-8.83.82-13.25,1.78-4.74,1-9.85.27-14.78.54C614.75,412.45,605.2,410.68,595.58,410.78Z" transform="translate(-77.11 -31.02)"/><path class="cls-3" d="M732.35,745.52c-2.3-4.88-2.52-10.35-2.79-15.43-.37-6.55-3.23-11.92-5.31-17.72-.38-1.06-.71-2.14-1.06-3.21,4.09,2.36,5.38,6.63,6.4,10.63C731.74,728.18,733.18,736.75,732.35,745.52Z" transform="translate(-77.11 -31.02)"/><path class="cls-3" d="M842.52,447c-.57-.31-1.53-.51-1.65-.94-1.56-5.74-5.93-5.41-10.48-5.19s-8.91.1-13.36,0c-1.52,0-3.48.67-4-1.71,6.74-.4,13.47-.93,20.22-1.16C841.85,437.77,842.11,438.12,842.52,447Z" transform="translate(-77.11 -31.02)"/><path class="cls-3" d="M715.05,779.16c7.92,1.62,11.79-1,14.33-8.82a44.1,44.1,0,0,0,2-14.16c0-1.53-1.22-3.65,1.17-4.67a37,37,0,0,1-3.55,24c-2.14,4.17-5.72,6.8-10.83,6.48C716.29,781.84,714.74,781.55,715.05,779.16Z" transform="translate(-77.11 -31.02)"/><path class="cls-3" d="M355,649.84c-5.49-1.54-10.21-5.13-16.32-5.18s-11.51.84-16.6,4c-1,.61-1.92,1.36-3.2,1C327.7,640.85,346.58,641,355,649.84Z" transform="translate(-77.11 -31.02)"/><path class="cls-3" d="M786.86,276.07c-3.72-2.07-4.74-6.21-7-9.38-3.49-5-8.36-9-10.59-14.83A74.2,74.2,0,0,1,786.86,276.07Z" transform="translate(-77.11 -31.02)"/><path class="cls-3" d="M488,803A51.36,51.36,0,0,1,504.08,787,55.43,55.43,0,0,1,488,803Z" transform="translate(-77.11 -31.02)"/><path class="cls-3" d="M291.6,678.75c0,.48.19,1.12,0,1.41-5.1,6.29-5.47,13.54-4.34,21.1C283.53,693.12,285.25,684.3,291.6,678.75Z" transform="translate(-77.11 -31.02)"/><path class="cls-3" d="M843,471.88c-1.71-6.89-1.29-13.81-.22-20.73A48.63,48.63,0,0,1,843,471.88Z" transform="translate(-77.11 -31.02)"/><path class="cls-3" d="M443.31,839.11l3.24.39c-6.11,3.83-12.32,3.58-18.61.46,2.38-1.9,4.72-.05,7.08,0C437.8,840.07,440.64,840.31,443.31,839.11Z" transform="translate(-77.11 -31.02)"/><path class="cls-3" d="M717.94,701.94c-4.91-3.83-9.11-8.25-11.76-14C711.43,691.5,714.85,696.58,717.94,701.94Z" transform="translate(-77.11 -31.02)"/><path class="cls-3" d="M414,829.93c4.62,2.58,8,6.69,12.33,9.69C421.67,839.65,416.1,835.26,414,829.93Z" transform="translate(-77.11 -31.02)"/><path class="cls-3" d="M768.14,250.68a26.09,26.09,0,0,1-9.47-11.94C762.44,242.23,766,245.86,768.14,250.68Z" transform="translate(-77.11 -31.02)"/><path class="cls-3" d="M821,407.43c4.61-2.19,9.68-2.61,14.56-3.77.32.62.49,1.57-.12,1.74-4.64,1.26-9.09,3.46-14.1,2.88C821.22,408.26,821.13,407.73,821,407.43Z" transform="translate(-77.11 -31.02)"/><path class="cls-3" d="M841,493.82c-1.29-4.49-.44-8.71,1.63-12.77A22,22,0,0,1,841,493.82Z" transform="translate(-77.11 -31.02)"/><path class="cls-3" d="M798.93,439c-4.06,1.32-8.09,2.13-11.95-.55C791,437.89,795,437.46,798.93,439Z" transform="translate(-77.11 -31.02)"/><path class="cls-3" d="M476.4,814.29c.7-5,4.84-6.47,8.62-8.29C483.3,810,479.58,811.85,476.4,814.29Z" transform="translate(-77.11 -31.02)"/><path class="cls-3" d="M317.06,651.17c-2.19,3.11-4.41,6.19-8.21,7.54C310.79,655.33,313.17,652.43,317.06,651.17Z" transform="translate(-77.11 -31.02)"/><path class="cls-3" d="M674.22,409.46c1.61-2.11,1.93-5.24,4.95-6.22-.74,2.06-1.35,4.17-2.26,6.15C676.24,410.88,675.17,411.37,674.22,409.46Z" transform="translate(-77.11 -31.02)"/><path class="cls-3" d="M586.29,524c3.39,1.92,6.58,4,7.47,8.19C590.56,530.06,587.43,527.92,586.29,524Z" transform="translate(-77.11 -31.02)"/><path class="cls-3" d="M793,286a12.81,12.81,0,0,1-5.64-9.15A17.91,17.91,0,0,1,793,286Z" transform="translate(-77.11 -31.02)"/><path class="cls-3" d="M831.5,376.33c-2.73-2.58-3.23-5.79-2.66-9.32C831.1,369.73,831.57,373,831.5,376.33Z" transform="translate(-77.11 -31.02)"/><path class="cls-3" d="M300.09,717.93a12.15,12.15,0,0,1,7.2,4.67A8.86,8.86,0,0,1,300.09,717.93Z" transform="translate(-77.11 -31.02)"/><path class="cls-3" d="M471,820c.06-3.46,2.2-5,5.28-5.63C475.75,817.4,473.17,818.52,471,820Z" transform="translate(-77.11 -31.02)"/><path class="cls-3" d="M458.1,831.1c.64-3.93,3.62-4.72,6.88-5.13A22.52,22.52,0,0,1,458.1,831.1Z" transform="translate(-77.11 -31.02)"/><path class="cls-3" d="M301.09,667.09c-1,2.57-2.11,5-5,6C296.93,670.4,298.22,668.09,301.09,667.09Z" transform="translate(-77.11 -31.02)"/><path class="cls-3" d="M673,437.7c-2.27,1.94-4.6,1.77-7,.19A8.84,8.84,0,0,1,673,437.7Z" transform="translate(-77.11 -31.02)"/><path class="cls-3" d="M722.56,707.82c-2-1-3.68-2.18-3.6-4.73C721.23,703.85,722.93,705,722.56,707.82Z" transform="translate(-77.11 -31.02)"/><path class="cls-3" d="M826.43,358.36c-1.92-2.07-3.34-4.32-2.49-7.33C825.75,353.14,827,355.46,826.43,358.36Z" transform="translate(-77.11 -31.02)"/><path class="cls-3" d="M801,300c-2.92-1.1-3.61-3.44-3.47-6.25A8.68,8.68,0,0,1,801,300Z" transform="translate(-77.11 -31.02)"/><path class="cls-3" d="M812,408.42c1.92-1.59,4-1.06,6-.37C816.2,410.87,814.16,410.57,812,408.42Z" transform="translate(-77.11 -31.02)"/><path class="cls-3" d="M751.19,230.63c-2.19-.4-3.63-1.46-3.56-3.91A5.19,5.19,0,0,1,751.19,230.63Z" transform="translate(-77.11 -31.02)"/><path class="cls-3" d="M828.5,365.34c-1.78-1.4-3.09-2.94-1.61-5.32A4.91,4.91,0,0,1,828.5,365.34Z" transform="translate(-77.11 -31.02)"/><path class="cls-3" d="M822.68,347.23c-1.93-1.28-2.77-2.94-1.8-5.22A5.12,5.12,0,0,1,822.68,347.23Z" transform="translate(-77.11 -31.02)"/><path class="cls-5" d="M358.23,792c1.85-.91,2.89,0,3.65,1.61C360.16,794.19,359,793.45,358.23,792Z" transform="translate(-77.11 -31.02)"/><path class="cls-1" d="M361,682c0-2.16.07-4.23,3.22-3.08l-.84,2.63c-.93-.6-1.64.19-2.44.39Z" transform="translate(-77.11 -31.02)"/><path class="cls-3" d="M732.19,212.41l-3.36-.34c-1.31-.66-1-1.73-.05-2C730.71,209.4,731.53,210.92,732.19,212.41Z" transform="translate(-77.11 -31.02)"/><path class="cls-3" d="M448,839.06c.5-2.51,2.33-2.91,4.48-2.8C451.55,838.15,449.78,838.65,448,839.06Z" transform="translate(-77.11 -31.02)"/><path class="cls-3" d="M703.76,685c-1.68-.19-2.68-1-2.56-2.83A2.73,2.73,0,0,1,703.76,685Z" transform="translate(-77.11 -31.02)"/><path class="cls-3" d="M413.76,793.85a3.09,3.09,0,0,1-2.63,3.28C411,795.25,412.15,794.35,413.76,793.85Z" transform="translate(-77.11 -31.02)"/><path class="cls-3" d="M485,806a2.79,2.79,0,0,1,3-3C487.92,804.92,486.77,805.77,485,806Z" transform="translate(-77.11 -31.02)"/><path class="cls-3" d="M308.71,658.86c.08,2-.95,2.89-2.87,2.92A3.54,3.54,0,0,1,308.71,658.86Z" transform="translate(-77.11 -31.02)"/><path class="cls-3" d="M305.78,661.85c.05,2-1,2.94-2.9,3A3.37,3.37,0,0,1,305.78,661.85Z" transform="translate(-77.11 -31.02)"/><path class="cls-3" d="M297,715.05c1.63.3,2.82,1.06,3.05,2.86A2.92,2.92,0,0,1,297,715.05Z" transform="translate(-77.11 -31.02)"/><path class="cls-3" d="M737.37,245.81c1.23.9,1.5,1.92.41,3.12C736.78,248,736.92,246.93,737.37,245.81Z" transform="translate(-77.11 -31.02)"/><path class="cls-3" d="M739.45,261.78c1.07.94,1.44,2,.35,3.14A2.41,2.41,0,0,1,739.45,261.78Z" transform="translate(-77.11 -31.02)"/><path class="cls-3" d="M834.28,390.4c-1.36-1-1.8-2.06-.44-3.38C835.31,388,835.12,389.14,834.28,390.4Z" transform="translate(-77.11 -31.02)"/><path class="cls-3" d="M774,437.91c-.89,1.27-1.84,1.66-2.92.2C771.94,436.77,772.94,437,774,437.91Z" transform="translate(-77.11 -31.02)"/><path class="cls-3" d="M705.44,766.24c1.71-.1,2.4.8,2.37,2.4C706.71,768.15,705.19,768.06,705.44,766.24Z" transform="translate(-77.11 -31.02)"/><path class="cls-3" d="M314,724.74c1.12-1.09,2.25-.86,3.38,0C316.22,726,315.09,726.25,314,724.74Z" transform="translate(-77.11 -31.02)"/><path class="cls-5" d="M358.16,690c-.2-1.54-.44-3.11,2-2.76C360.47,688.87,359.55,689.61,358.16,690Z" transform="translate(-77.11 -31.02)"/><path class="cls-5" d="M359.65,654.91c-1.56-.21-1.4-1.45-1.52-2.53A1.89,1.89,0,0,1,359.65,654.91Z" transform="translate(-77.11 -31.02)"/><path class="cls-5" d="M361,682c.8-.2,1.51-1,2.44-.39a2.57,2.57,0,0,1-1.58,2.87C361.55,683.63,361.26,682.81,361,682Z" transform="translate(-77.11 -31.02)"/><path class="cls-3" d="M802.8,303.19c-1.47-.24-1.89-1.06-1.38-2.41A1.67,1.67,0,0,1,802.8,303.19Z" transform="translate(-77.11 -31.02)"/><path class="cls-3" d="M454,835a1.83,1.83,0,0,1,2.09-2A1.93,1.93,0,0,1,454,835Z" transform="translate(-77.11 -31.02)"/><path class="cls-3" d="M738.42,251.78c1.07.55,1.38,1.23.37,2.14A1.39,1.39,0,0,1,738.42,251.78Z" transform="translate(-77.11 -31.02)"/><path class="cls-3" d="M736.35,240.82c1,.53,1.49,1.17.42,2.11A1.4,1.4,0,0,1,736.35,240.82Z" transform="translate(-77.11 -31.02)"/><path class="cls-3" d="M735.22,235.94c1,.44,1.67,1,.5,2A1.34,1.34,0,0,1,735.22,235.94Z" transform="translate(-77.11 -31.02)"/><path class="cls-3" d="M754.13,233.73a1.66,1.66,0,0,1-1.83-1.87A1.66,1.66,0,0,1,754.13,233.73Z" transform="translate(-77.11 -31.02)"/><path class="cls-3" d="M733.29,226.91c1.05.46,1.56,1,.46,2C732.89,228.41,732.9,227.7,733.29,226.91Z" transform="translate(-77.11 -31.02)"/><path class="cls-3" d="M806,309c-1.39-.14-2.09-.77-1.57-2.25A1.65,1.65,0,0,1,806,309Z" transform="translate(-77.11 -31.02)"/><path class="cls-3" d="M730.18,215.89c1.15.35,1.69.94.79,2.07A1.42,1.42,0,0,1,730.18,215.89Z" transform="translate(-77.11 -31.02)"/><path class="cls-3" d="M645.29,137.69c-.84.14-1.12-.29-1.08-1a.75.75,0,0,1,1.22.18C645.54,137,645.34,137.4,645.29,137.69Z" transform="translate(-77.11 -31.02)"/><path class="cls-4" d="M534.83,86.9c-.87,1.42-1.45.93-1.9-.3C533.68,86,534.32,86,534.83,86.9Z" transform="translate(-77.11 -31.02)"/><path class="cls-3" d="M410.68,797.81c.26,1.35-.31,2.07-1.67,2.18A1.9,1.9,0,0,1,410.68,797.81Z" transform="translate(-77.11 -31.02)"/><path class="cls-3" d="M835.22,399.41c-1-.68-1.71-1.4-.31-2.39C836,397.68,836,398.5,835.22,399.41Z" transform="translate(-77.11 -31.02)"/><path class="cls-3" d="M833.28,383.41c-1.1-.57-1.87-1.23-.6-2.4C834,381.54,834,382.37,833.28,383.41Z" transform="translate(-77.11 -31.02)"/><path class="cls-3" d="M732.64,343.08c1.24,1.13.5,1.54-.65,1.81C731.66,344.09,731.76,343.44,732.64,343.08Z" transform="translate(-77.11 -31.02)"/><path class="cls-3" d="M708.77,770a1.15,1.15,0,0,1,1,1.61C708.54,771.68,708.21,771.14,708.77,770Z" transform="translate(-77.11 -31.02)"/><path class="cls-3" d="M819.58,338.3c-1.28-.58-1.66-1.41-.73-2.6A1.75,1.75,0,0,1,819.58,338.3Z" transform="translate(-77.11 -31.02)"/><path class="cls-3" d="M710.71,773.08c1.06.09,1.34.71,1.12,1.66C710.6,774.76,710.13,774.27,710.71,773.08Z" transform="translate(-77.11 -31.02)"/><path class="cls-3" d="M712.64,777a1.39,1.39,0,0,1,1.33,1.66C712.46,778.9,712,778.36,712.64,777Z" transform="translate(-77.11 -31.02)"/><path class="cls-3" d="M735.71,331.07c1.22,1,.59,1.57-.52,2A1.3,1.3,0,0,1,735.71,331.07Z" transform="translate(-77.11 -31.02)"/><path class="cls-3" d="M302.84,664.88c.08,1.26-.28,2.17-1.75,2.21A1.81,1.81,0,0,1,302.84,664.88Z" transform="translate(-77.11 -31.02)"/><path class="cls-3" d="M407.46,802.74a1.73,1.73,0,0,1-1.17,2.5A1.91,1.91,0,0,1,407.46,802.74Z" transform="translate(-77.11 -31.02)"/><path class="cls-3" d="M813.69,323.25c-1.39-.31-1.88-1.11-1.32-2.46C813.8,321.08,814.22,321.91,813.69,323.25Z" transform="translate(-77.11 -31.02)"/><path class="cls-3" d="M469,821.93A1.78,1.78,0,0,1,471,820,1.88,1.88,0,0,1,469,821.93Z" transform="translate(-77.11 -31.02)"/><path class="cls-3" d="M811.66,319.27c-1.34-.34-1.91-1.1-1.33-2.47C811.73,317.12,812.2,317.92,811.66,319.27Z" transform="translate(-77.11 -31.02)"/><path class="cls-3" d="M738.71,313.07c1.07.95.7,1.59-.44,2.08A1.38,1.38,0,0,1,738.71,313.07Z" transform="translate(-77.11 -31.02)"/><path class="cls-3" d="M456.05,833.06c0-1.38.69-2,2.05-2A2.09,2.09,0,0,1,456.05,833.06Z" transform="translate(-77.11 -31.02)"/><path class="cls-3" d="M600.07,538.05c1.34,0,1.94.63,1.83,2A2.32,2.32,0,0,1,600.07,538.05Z" transform="translate(-77.11 -31.02)"/><path class="cls-3" d="M718.91,703l-.85-1Z" transform="translate(-77.11 -31.02)"/><path class="cls-3" d="M608,546.16c.59,0,.84.34.85.91Z" transform="translate(-77.11 -31.02)"/><path class="cls-3" d="M699.32,679.85l-.21-.19.28-.08Z" transform="translate(-77.11 -31.02)"/><path class="cls-3" d="M692,671.76c-.54,0-.79-.25-.65-.81Z" transform="translate(-77.11 -31.02)"/><path class="cls-3" d="M597.62,535.4c.7-.1,1.07.17,1,.91Z" transform="translate(-77.11 -31.02)"/><polygon class="cls-3" points="660.68 289.49 661.01 289.42 660.68 289.39 660.68 289.49"/><path class="cls-1" d="M506.9,779a4.06,4.06,0,0,1-.24-.72c0-.1.22-.22.34-.33Z" transform="translate(-77.11 -31.02)"/><path class="cls-2" d="M617,265.85c-.47,62.94-46.13,105.45-102,107.45-62.52,2.22-107-44.65-108.72-99.09-2.28-70.37,45.62-109.88,102.68-111.88C569,160.23,617.22,206.45,617,265.85ZM443.62,302.72A15.65,15.65,0,0,0,449.83,313C461.57,328.14,476,339,495.54,341.91c5.87.86,11.86,3,17.58,2.42,12.32-1.22,24.67-3.19,35.74-9.52a1.77,1.77,0,0,0,2.4-1.21A5.57,5.57,0,0,1,552,333a1.79,1.79,0,0,0,2.25-1.39c14.22-10.67,24.57-23.69,29-41.54,7.77-31.18-.07-70.79-36.22-89.83-23.74-12.5-47.89-13.83-71.42-.58-24.43,13.76-40.27,33.85-40.64,63.43a16.66,16.66,0,0,0,.15,11.86c.22,1.38.43,2.77.64,4.15-1,2.6-.25,4.83,1.46,6.86l.32,1.76a15.62,15.62,0,0,0,3.85,10.49Z" transform="translate(-77.11 -31.02)"/><path class="cls-3" d="M735.2,657.33c-6.85-3.49-10.66-8.86-15.66-12.74-2-1.55-2.91-4.45-6-4.75a1.68,1.68,0,0,1-1.2-.77c-5.18-12.53-16-20.09-26.16-27.6-6.28-4.64-9.11-11.71-15.16-16.22-6.36-4.74-10.12-12.15-16.34-17.15-.72-.58-1.82-1.45-1-2.45s1.62-.16,2.4.58c11.64,11.16,24,21.64,34.78,33.56,11.17,12.34,24.24,22.7,35.06,35.36C729,648.73,732.74,651.66,735.2,657.33Z" transform="translate(-77.11 -31.02)"/><path class="cls-6" d="M462,761.81c0-5.46,0-4.75,4.55-3.66,8.35,2,16.94,3.8,25.56.73,3.06-1.1,5.09.66,5.78,3.28,1.74,6.61-3.09,14.61-9.86,17-2.12.75-3.42,2.82-6.13,2.91-9.31.33-14.49-2.86-17.95-11.9C462.88,767.42,461.6,764.64,462,761.81Z" transform="translate(-77.11 -31.02)"/><path class="cls-1" d="M548.86,334.81c-11.07,6.33-23.42,8.3-35.74,9.52-5.72.57-11.71-1.56-17.58-2.42C476,339,461.57,328.14,449.83,313a26.09,26.09,0,0,0-6.21-10.26l-2.18-4.53c-.2-3.89-1.8-7.27-3.85-10.49-.11-.59-.22-1.17-.32-1.76.7-2.54-.29-4.72-1.46-6.86l-.63-4.15a23.82,23.82,0,0,0-.16-11.86c.37-29.58,16.21-49.67,40.64-63.43,23.53-13.25,47.68-11.92,71.42.58,36.15,19,44,58.65,36.22,89.83-4.46,17.85-14.81,30.87-29,41.54-1.4-.59-2.16-.14-2.25,1.39a5.57,5.57,0,0,0-.76.62C550,333,549.19,333.48,548.86,334.81Z" transform="translate(-77.11 -31.02)"/><path class="cls-3" d="M443.62,302.72A26.09,26.09,0,0,1,449.83,313,15.69,15.69,0,0,1,443.62,302.72Z" transform="translate(-77.11 -31.02)"/><path class="cls-3" d="M435,263.07a23.82,23.82,0,0,1,.16,11.86A16.61,16.61,0,0,1,435,263.07Z" transform="translate(-77.11 -31.02)"/><path class="cls-3" d="M437.59,287.7c2.05,3.22,3.65,6.6,3.85,10.49A15.62,15.62,0,0,1,437.59,287.7Z" transform="translate(-77.11 -31.02)"/><path class="cls-3" d="M435.81,279.08c1.17,2.14,2.16,4.32,1.46,6.86C435.56,283.91,434.84,281.68,435.81,279.08Z" transform="translate(-77.11 -31.02)"/><path class="cls-3" d="M548.86,334.81c.33-1.33,1.1-1.8,2.4-1.21A1.77,1.77,0,0,1,548.86,334.81Z" transform="translate(-77.11 -31.02)"/><path class="cls-3" d="M552,333c.09-1.53.85-2,2.25-1.39A1.79,1.79,0,0,1,552,333Z" transform="translate(-77.11 -31.02)"/><rect class="cls-5" x="575.89" y="536.98" width="36" height="19" rx="9.5" ry="9.5"/><rect class="cls-5" x="716" y="627" width="22" height="28" rx="11" ry="11" transform="translate(-171.43 95.35) rotate(-9.33)"/><rect class="cls-5" x="582.89" y="543.98" width="34" height="21" rx="10.5" ry="10.5"/><rect class="cls-5" x="595.89" y="557.98" width="33" height="22" rx="11" ry="11"/><rect class="cls-5" x="607.89" y="568.98" width="33" height="21" rx="10.5" ry="10.5"/><rect class="cls-5" x="618.89" y="578.98" width="37" height="25" rx="12" ry="12"/><rect class="cls-5" x="633.89" y="597.98" width="33" height="12" rx="6" ry="6"/><rect class="cls-5" x="653.89" y="615.98" width="22" height="12" rx="6" ry="6"/><rect class="cls-5" x="593.89" y="562.98" width="15" height="8" rx="4" ry="4"/></svg>